<?xml version="1.0" encoding="UTF-8"?>
<svg xmlns="http://www.w3.org/2000/svg" version="1.1" width="300" height="300" viewBox="0 0 300 300"><rect x="0" y="0" width="300" height="300" fill="#ffffff"/><g transform="scale(12)"><g transform="translate(0,0)"><path fill-rule="evenodd" d="M9 0L9 1L8 1L8 2L9 2L9 3L8 3L8 4L10 4L10 7L11 7L11 4L12 4L12 5L13 5L13 4L14 4L14 7L15 7L15 6L16 6L16 7L17 7L17 6L16 6L16 5L17 5L17 4L16 4L16 5L15 5L15 2L16 2L16 3L17 3L17 1L14 1L14 0L13 0L13 1L11 1L11 2L10 2L10 0ZM13 1L13 2L12 2L12 3L14 3L14 1ZM10 3L10 4L11 4L11 3ZM8 5L8 7L9 7L9 5ZM12 6L12 8L6 8L6 9L5 9L5 8L0 8L0 9L2 9L2 10L3 10L3 11L1 11L1 10L0 10L0 12L1 12L1 13L0 13L0 17L1 17L1 14L3 14L3 11L4 11L4 12L5 12L5 14L6 14L6 15L2 15L2 16L4 16L4 17L5 17L5 16L6 16L6 17L7 17L7 16L8 16L8 19L9 19L9 20L8 20L8 25L9 25L9 24L10 24L10 25L15 25L15 24L17 24L17 25L18 25L18 23L17 23L17 22L15 22L15 21L18 21L18 22L19 22L19 21L20 21L20 22L22 22L22 23L23 23L23 22L24 22L24 24L22 24L22 25L25 25L25 21L24 21L24 20L25 20L25 18L22 18L22 17L25 17L25 16L24 16L24 15L25 15L25 14L23 14L23 13L24 13L24 11L25 11L25 10L24 10L24 11L23 11L23 9L24 9L24 8L23 8L23 9L22 9L22 8L21 8L21 9L22 9L22 10L21 10L21 11L23 11L23 12L20 12L20 8L19 8L19 10L17 10L17 9L18 9L18 8L13 8L13 6ZM12 8L12 10L11 10L11 9L10 9L10 11L11 11L11 12L10 12L10 13L6 13L6 14L10 14L10 13L12 13L12 14L11 14L11 16L14 16L14 14L16 14L16 15L15 15L15 17L16 17L16 15L17 15L17 14L16 14L16 13L15 13L15 12L14 12L14 11L13 11L13 12L12 12L12 10L13 10L13 8ZM4 9L4 11L5 11L5 12L8 12L8 10L9 10L9 9L6 9L6 10L7 10L7 11L5 11L5 9ZM14 9L14 10L16 10L16 11L17 11L17 12L18 12L18 11L17 11L17 10L16 10L16 9ZM13 12L13 14L14 14L14 12ZM19 12L19 13L18 13L18 14L19 14L19 15L20 15L20 14L22 14L22 13L20 13L20 12ZM19 13L19 14L20 14L20 13ZM6 15L6 16L7 16L7 15ZM8 15L8 16L9 16L9 17L10 17L10 18L9 18L9 19L10 19L10 18L11 18L11 19L12 19L12 20L11 20L11 21L9 21L9 23L10 23L10 24L11 24L11 23L12 23L12 24L15 24L15 22L14 22L14 21L12 21L12 20L16 20L16 18L14 18L14 17L13 17L13 18L11 18L11 17L10 17L10 15ZM21 15L21 16L23 16L23 15ZM17 17L17 20L20 20L20 17ZM18 18L18 19L19 19L19 18ZM21 18L21 21L22 21L22 22L23 22L23 21L22 21L22 20L24 20L24 19L22 19L22 18ZM11 21L11 22L10 22L10 23L11 23L11 22L12 22L12 21ZM13 22L13 23L14 23L14 22ZM19 23L19 25L20 25L20 23ZM0 0L0 7L7 7L7 0ZM1 1L1 6L6 6L6 1ZM2 2L2 5L5 5L5 2ZM18 0L18 7L25 7L25 0ZM19 1L19 6L24 6L24 1ZM20 2L20 5L23 5L23 2ZM0 18L0 25L7 25L7 18ZM1 19L1 24L6 24L6 19ZM2 20L2 23L5 23L5 20Z" fill="#000000"/></g></g></svg>
